<?xml version="1.0" encoding="utf-8"?>
<!-- Generator: Adobe Illustrator 25.2.0, SVG Export Plug-In . SVG Version: 6.00 Build 0)  -->
<svg version="1.1" id="Layer_1" xmlns="http://www.w3.org/2000/svg" xmlns:xlink="http://www.w3.org/1999/xlink" x="0px" y="0px"
	 viewBox="0 0 50 50" style="enable-background:new 0 0 50 50;" xml:space="preserve">
<style type="text/css">
	.st0{fill:#1D1D1B;}
</style>
<g>
	<polygon class="st0" points="43.1,8 44.5,8 44.5,2.1 38.5,2.1 38.5,3.5 43.1,3.5 	"/>
	<polygon class="st0" points="7.4,3.4 12,3.4 12,2 6,2 6,7.9 7.4,7.9 	"/>
	<polygon class="st0" points="43.1,27 43.1,31.6 38.7,31.6 38.7,33 44.5,33 44.5,27 	"/>
	<polygon class="st0" points="11.3,31.6 6.9,31.6 6.9,27 5.5,27 5.5,33 11.3,33 	"/>
	<path class="st0" d="M30.2,32.2l0-1.6c2.4-2,3.7-5,4.1-6.2c0.6-0.1,1-0.5,1.3-1l3-5.3l0-0.2c0-0.9-0.3-1.6-0.9-2.1
		c-0.5-0.4-1.1-0.6-1.7-0.6c3-8.3-2.2-11.6-2.2-11.6c-1.5-1.1-2.9-1.6-4.3-1.4c-1.1,0.1-1.9,0.7-2.4,1.1c-3.9-2.4-8.5,0.6-8.7,0.7
		c-4.9,3.6-4.5,8.8-4,11c-0.4,0-0.8,0.1-1.2,0.3c-0.9,0.5-1.1,1.5-1.1,1.6l0,0.1l0,0.1c0.3,3.5,2.6,6.1,3.6,7.1
		c0.1,0.1,0.3,0.3,0.3,0.5c1.1,2.8,2.6,4.6,4.1,5.7l0.1,2c-2.3,0.5-13.6,3.3-13.8,14.3V48l15.2-0.2l0-1.4L7.8,46.6
		c0.2-9.8,10-12.3,12.5-12.8l0,1l0,0.2c0,0.1,1,2.7,5,3.3c0.1,0,3.6-0.1,4.9-3.5l0-1.1c2.5,0.5,12.7,3.1,12.9,13l-13.8-0.2l0,1.4
		L44.5,48v-1.4C44.2,35.5,32.5,32.6,30.2,32.2z M19.2,5c0,0,4.4-2.8,7.6-0.4L27.3,5l0.4-0.5c0.2-0.2,2-2.3,5.2,0.2
		c0.2,0.1,3.9,2.6,2,9c-0.6-0.9-1.3-1.5-1.3-1.5L33.4,12c-1.9-0.5-2.6-2.7-2.8-3.6l-0.2-0.6l-1.3,0.2l0,0.6c-0.1,1.6-0.8,4.4-4,4.7
		c-0.9,0-2.4-0.3-2.7-0.8l-0.2-0.2c-0.1-0.1-2.3-1.4-4.4-0.9c-1,0.3-1.7,0.9-2.3,1.8C15.4,10.9,15.8,7.5,19.2,5z M17.4,24
		c-0.2-0.4-0.4-0.7-0.7-1c-0.7-0.7-2.9-3-3.2-6.1c0-0.1,0.2-0.4,0.4-0.6c0.3-0.2,0.6-0.2,1.1,0l0.5,0.1l0.6-0.7L16,15.4
		c0,0,0-0.1,0-0.1l0,0c0.1,0.1,0.1,0.2,0.1,0.2c0-0.2,0.3-0.9,0.7-1.5c0.4-0.7,0.9-1.1,1.5-1.3c1.3-0.3,2.8,0.4,3.2,0.7
		c0.9,1.1,3.2,1.2,3.8,1.2c3-0.2,4.3-2.1,4.9-3.8c0.6,1,1.5,2,2.9,2.5c0.3,0.3,1.3,1.2,1.5,2.4l0,0c0,0.2,0.1,0.3,0.2,0.4
		c0.2,0.3,0.5,0.4,0.8,0.4c0.3,0,1,0,1.3,0.3c0.2,0.2,0.4,0.5,0.4,0.9l-2.8,5c0,0-0.2,0.3-0.4,0.3l-0.7-0.2l-0.2,0.7
		c0,0.1-2.1,7.4-7.8,7.6C25.1,31.1,20.2,30.8,17.4,24z M25.4,36.8c-2.7-0.3-3.5-1.9-3.7-2.2l-0.1-3.3c2,1.1,3.6,1.2,3.7,1.2
		c1.3-0.1,2.5-0.4,3.5-1l0,2.8C27.9,36.7,25.4,36.8,25.4,36.8z"/>
</g>
</svg>
