<?xml version="1.0" encoding="utf-8"?>
<!-- Generator: Adobe Illustrator 25.2.0, SVG Export Plug-In . SVG Version: 6.00 Build 0)  -->
<svg version="1.1" id="Layer_1" xmlns="http://www.w3.org/2000/svg" xmlns:xlink="http://www.w3.org/1999/xlink" x="0px" y="0px"
	 viewBox="0 0 50 50" style="enable-background:new 0 0 50 50;" xml:space="preserve">
<style type="text/css">
	.st0{fill:#1D1D1B;}
</style>
<g>
	<path class="st0" d="M25,23.2c-0.1,0-0.1,0.1-0.1,0.1v3.6c0,0.1,0.1,0.1,0.1,0.1c0.1,0,0.1-0.1,0.1-0.1v-3.6
		C25.1,23.3,25.1,23.2,25,23.2z"/>
	<path class="st0" d="M25,2.7c2.2,0,4.3,0.4,6.2,1.2l2.4,1.2c1.3,0.8,2.4,1.7,3.5,2.7c-1-1.3-2-2.4-3.2-3.4l-2.4-1.2
		C29.4,2.4,27.3,2,25,2c-2.8,0-5.6,0.7-8.2,2.1c-1,0.8-2,1.8-3,2.9C14.2,6.6,14.6,6.3,15,6C17.9,3.9,21.5,2.7,25,2.7z"/>
	<path class="st0" d="M17.9,45.7c-1.4-0.6-2.6-1.4-3.8-2.4c1,1.1,2,2.1,3.1,2.9c0.1,0.1,0.2,0.1,0.4,0.2C20,47.5,22.5,48,25,48
		c3,0,5.9-0.7,8.6-2.2c1.2-0.9,2.3-2.1,3.3-3.4c-0.8,0.8-1.6,1.5-2.6,2.1C29.5,47.7,23.2,48.2,17.9,45.7z"/>
	<path class="st0" d="M9.6,28.8c0.2,0,0.3-0.2,0.3-0.4l0-0.3c-0.2-6-0.4-12.8,3.7-17.5c0.1-0.1,0.1-0.4,0-0.5
		c-0.1-0.1-0.4-0.1-0.5,0C8.8,15.1,9,22,9.2,28.1l0,0.3C9.2,28.6,9.4,28.8,9.6,28.8C9.6,28.8,9.6,28.8,9.6,28.8z"/>
	<path class="st0" d="M25,45.6c3.6,0,7.1-1.3,10-3.6c0.1-0.1,0.2-0.3,0-0.5c-0.1-0.1-0.3-0.2-0.5,0c-4,3.4-9.6,4.4-14.6,2.6
		c-5.2-1.9-9-6.7-9.8-12.3c0-0.2,0-0.3-0.1-0.5c0-0.2-0.2-0.3-0.4-0.3c-0.2,0-0.3,0.2-0.3,0.4c0,0.2,0,0.4,0.1,0.5
		c0.8,5.8,4.8,10.9,10.3,12.9C21.4,45.3,23.2,45.6,25,45.6z"/>
	<path class="st0" d="M40.8,24.5c0-0.9-0.1-1.8-0.1-2.6c0-3.9-0.8-7-2.4-9.6c-2.9-4.7-8-7.6-13.3-7.6c-3.6,0-7.1,1.3-9.9,3.6
		c-0.1,0.1-0.2,0.3,0,0.5c0.1,0.1,0.2,0.1,0.3,0.1c0.1,0,0.2,0,0.2-0.1c2.7-2.2,6-3.4,9.5-3.4c5.1,0,10,2.8,12.8,7.3
		c1.5,2.5,2.3,5.5,2.3,9.2c0,0.9,0,1.8,0.1,2.7c0.1,2.5,0.2,5.1-0.3,7.6c-0.5,2.8-1.7,5.3-3.4,7.5c-0.1,0.1-0.1,0.4,0,0.5
		c0.1,0.1,0.1,0.1,0.2,0.1c0.1,0,0.2,0,0.3-0.1c1.9-2.2,3.1-4.9,3.6-7.8C41,29.6,40.9,27,40.8,24.5z"/>
	<path class="st0" d="M23.8,7.6c-0.2,0-0.3,0-0.5,0.1c-4.8,0.7-9,4.2-10.7,8.8c-0.1,0.2,0,0.4,0.2,0.4c0,0,0.1,0,0.1,0
		c0.1,0,0.3-0.1,0.3-0.2c1.6-4.5,5.6-7.8,10.1-8.4c0.2,0,0.3,0,0.5-0.1c0.2,0,0.3-0.2,0.3-0.4C24.1,7.7,23.9,7.6,23.8,7.6z"/>
	<path class="st0" d="M12.3,18.8c-0.2,0-0.3,0.1-0.4,0.3c-0.2,2.7-0.3,5.7-0.1,9l0,1.9c0.5,4.9,3.2,9.2,7,11.2c0,0,0.1,0,0.1,0
		c0.1,0,0.2-0.1,0.3-0.2c0.1-0.2,0-0.4-0.1-0.4c-3.7-1.9-6.2-6-6.7-10.7l0-1.9c-0.2-3.2-0.1-6.2,0.1-8.9
		C12.6,19,12.5,18.9,12.3,18.8z"/>
	<path class="st0" d="M37.6,17.2c-1.5-5.2-6.1-9.1-11.4-9.6c-0.2,0-0.3,0.1-0.4,0.3c0,0.2,0.1,0.3,0.3,0.4c5,0.5,9.4,4.2,10.9,9.2
		c0.6,2.2,0.6,4.6,0.6,6.9c0,0.8,0,1.5,0,2.3c0,2.6,0,5.6-1.3,8.3c-2.2,4.7-7.1,7.6-12.1,7.2c-0.9-0.1-1.9-0.2-2.8-0.5
		c-0.2-0.1-0.4,0-0.4,0.2c-0.1,0.2,0,0.4,0.2,0.4c0.9,0.3,1.9,0.5,2.9,0.6c0.3,0,0.6,0,0.9,0c5,0,9.7-3,11.9-7.6
		c1.4-2.8,1.4-5.9,1.4-8.6c0-0.7,0-1.5,0-2.3C38.3,21.9,38.3,19.5,37.6,17.2z"/>
	<path class="st0" d="M25,40.2c3.3,0,6.6-1.6,8.7-4.4c0.1-0.1,0.1-0.3-0.1-0.4c-0.1-0.1-0.3-0.1-0.4,0.1c-2.8,3.7-7.7,5.1-11.9,3.4
		c-1.7-0.7-3.2-1.8-4.3-3.2c-0.1-0.1-0.3-0.2-0.4,0c-0.1,0.1-0.2,0.3,0,0.4c1.2,1.5,2.8,2.7,4.5,3.4C22.3,40,23.6,40.2,25,40.2z"/>
	<path class="st0" d="M34.3,33.5c-0.1,0.2,0,0.3,0.2,0.4c0,0,0.1,0,0.1,0c0.1,0,0.2-0.1,0.3-0.2c0.4-1,0.8-1.9,1-3.1
		c0.3-4,0.2-7.5-0.1-11c-0.1-2.3-1.1-4.4-2.7-6c-0.1-0.1-0.3-0.1-0.4,0c-0.1,0.1-0.1,0.3,0,0.4c1.5,1.5,2.4,3.5,2.5,5.6
		c0.4,3.5,0.4,7,0.1,10.9C35.1,31.7,34.8,32.6,34.3,33.5z"/>
	<path class="st0" d="M25,10.1L25,10.1L25,10.1c-4.1,0-8.1,2.6-9.9,6.4C13.9,19.1,14,22,14,24.7l0,0.3c0,0.5,0,1.1,0,1.6
		c0,2.4,0,4.9,1.1,7.3c0.1,0.1,0.2,0.2,0.3,0.2c0,0,0.1,0,0.1,0c0.2-0.1,0.2-0.3,0.1-0.4c-1.1-2.2-1.1-4.5-1.1-7c0-0.5,0-1.1,0-1.6
		l0-0.3c-0.1-2.7-0.1-5.5,1-8c1.7-3.6,5.4-6.1,9.3-6.1h0l0,0c0,0,0,0,0,0c2,0,4.1,0.6,5.8,1.8c0.1,0,0.1,0.1,0.2,0.1
		c0.1,0,0.2,0,0.3-0.1c0.1-0.1,0.1-0.3-0.1-0.4C29.3,10.7,27.2,10.1,25,10.1C25,10.1,25,10.1,25,10.1z"/>
	<path class="st0" d="M25,12.5c-4.8,0-8.8,4-8.8,9v7.2c0,5,3.9,9,8.8,9c4.8,0,8.8-4,8.8-9v-7.2C33.8,16.6,29.8,12.5,25,12.5z
		 M33.2,28.7c0,4.7-3.7,8.5-8.2,8.5c-4.5,0-8.2-3.8-8.2-8.5v-7.2c0-4.7,3.7-8.5,8.2-8.5c4.5,0,8.2,3.8,8.2,8.5V28.7z"/>
	<path class="st0" d="M25,14.9c-3.7,0-6.8,3.1-6.8,6.9v6.6c0,3.8,3,6.9,6.8,6.9c3.7,0,6.8-3.1,6.8-6.9v-6.6
		C31.8,18,28.7,14.9,25,14.9z M31.2,28.4c0,3.5-2.8,6.4-6.2,6.4c-3.4,0-6.2-2.9-6.2-6.4v-6.6c0-3.5,2.8-6.4,6.2-6.4
		c3.4,0,6.2,2.9,6.2,6.4V28.4z"/>
	<path class="st0" d="M25,17.2c-0.1,0-0.2,0-0.3,0c-1.7,0.1-3.2,1.1-4,2.6c-0.5,1-0.6,2.1-0.6,3.1v3.4c0,0.2,0,0.4,0,0.7
		c0,0.6,0,1.2,0,1.7c0.2,1.7,1.3,3.2,2.9,4c0.6,0.3,1.3,0.4,2,0.4c0.9,0,1.9-0.3,2.7-0.9c0.1-0.1,0.1-0.2,0.1-0.3
		c-0.1-0.1-0.2-0.1-0.3-0.1c-1.2,0.9-2.8,1-4.2,0.4c-1.5-0.7-2.4-2-2.6-3.6c-0.1-0.5-0.1-1.1,0-1.7c0-0.2,0-0.4,0-0.7v-3.4
		c0-0.9,0-1.9,0.5-2.9c0.7-1.4,2.1-2.3,3.6-2.4c0.1,0,0.2,0,0.2,0c1.5,0,2.9,0.8,3.7,2.2c0.6,1,0.6,2,0.6,2.9c0,0.6,0,1.2,0,1.8
		c0,1.2,0,2.5,0,3.8c0,0.8-0.3,1.5-0.7,2.2c-0.1,0.1,0,0.3,0.1,0.3c0,0,0.1,0,0.1,0c0.1,0,0.2,0,0.2-0.1c0.5-0.7,0.7-1.6,0.8-2.4
		c0.1-1.3,0.1-2.6,0-3.8c0-0.6,0-1.2,0-1.8c0-1-0.1-2.1-0.7-3.2C28.3,18.1,26.7,17.2,25,17.2z"/>
	<path class="st0" d="M21.9,25.5c-0.1,0-0.2,0.1-0.2,0.2l0,0.7c0,0.4,0,0.9,0,1.3c0,1.4,0.8,2.6,2,3.1c0.4,0.2,0.8,0.3,1.3,0.3
		c1.1,0,2.1-0.5,2.7-1.5c0.5-0.8,0.6-1.7,0.6-2.6v-3c0-0.2,0-0.4,0-0.5c0-0.6,0-1.1-0.1-1.7c-0.3-1.5-1.7-2.7-3.2-2.7
		c-0.1,0-0.1,0-0.2,0c-1.5,0.1-2.8,1.3-3.1,2.8c-0.1,0.5-0.1,1,0,1.5c0,0.2,0,0.4,0,0.6c0,0.1,0.1,0.2,0.2,0.2
		c0.1,0,0.2-0.1,0.2-0.2c0-0.2,0-0.4,0-0.6c0-0.5,0-1,0-1.5c0.2-1.3,1.4-2.4,2.7-2.5c0.1,0,0.1,0,0.2,0c1.3,0,2.5,1,2.8,2.3
		c0.1,0.5,0.1,1,0.1,1.6c0,0.2,0,0.4,0,0.5v3c0,0.9,0,1.7-0.5,2.4c-0.8,1.1-2.2,1.6-3.5,1c-1.1-0.5-1.7-1.5-1.7-2.8
		c0-0.4,0-0.9,0-1.3l0-0.7C22.1,25.6,22,25.5,21.9,25.5z"/>
	<path class="st0" d="M26.8,27.1C26.8,27.1,26.8,27.1,26.8,27.1c0.1,0,0.2-0.1,0.2-0.2c0-1.3,0-2.7,0-4c-0.1-1.1-0.9-2.2-2.1-2.2
		c0,0,0,0,0,0c-0.7,0-1.4,0.4-1.7,1c-0.3,0.5-0.3,1.2-0.3,1.8c0,0.1,0,0.2,0,0.3v2.7l0,0.2c0,0.7,0,1.3,0.4,1.9
		c0.4,0.5,1,0.8,1.6,0.8c0.1,0,0.2,0,0.2,0c0.7-0.1,1.3-0.5,1.6-1.2c0-0.1,0-0.2-0.1-0.2c-0.1,0-0.2,0-0.2,0.1
		c-0.2,0.5-0.7,0.9-1.3,1c-0.6,0.1-1.1-0.2-1.5-0.6c-0.4-0.5-0.4-1.1-0.4-1.7l0-3c0-0.1,0-0.2,0-0.3c0-0.6,0-1.1,0.2-1.6
		c0.3-0.5,0.8-0.8,1.4-0.8c1,0,1.6,0.9,1.7,1.8c0,1.3,0,2.7,0,4C26.7,27,26.7,27.1,26.8,27.1z"/>
	<path class="st0" d="M25,22.1c-0.5,0-1,0.4-1,1v4.1c0,0.6,0.4,1,1,1c0.5,0,1-0.4,1-1v-4.1C26,22.5,25.5,22.1,25,22.1z M25.6,27.2
		c0,0.4-0.3,0.7-0.6,0.7c-0.4,0-0.6-0.3-0.6-0.7v-4.1c0-0.4,0.3-0.7,0.6-0.7c0,0,0,0,0,0c0,0,0,0,0,0c0.4,0,0.6,0.3,0.6,0.7V27.2z"
		/>
</g>
</svg>
