<svg id="Layer_1" data-name="Layer 1" xmlns="http://www.w3.org/2000/svg" xmlns:xlink="http://www.w3.org/1999/xlink" viewBox="0 0 200 200"><defs><style>.cls-1{fill:none;}.cls-2{fill:#dfe2f4;}.cls-3{fill:#5e80fe;}.cls-4{fill:#58b0e0;}.cls-5{clip-path:url(#clip-path);}.cls-6{fill:#68717a;}.cls-7{fill:#3f4553;}.cls-8{fill:#444958;}.cls-9{fill:#e4e5e5;}.cls-10{fill:#ffe8be;}.cls-11{fill:#474449;}.cls-12{fill:#dbc28c;}.cls-13{fill:#f44339;}.cls-14{fill:#ebeff8;}</style><clipPath id="clip-path"><circle class="cls-1" cx="100.26" cy="107.95" r="84.05"/></clipPath></defs><path class="cls-2" d="M169.94,179.07a2,2,0,0,1-.85-.49,1.93,1.93,0,0,1-.52-1.84,2,2,0,0,1,.49-.86,95.53,95.53,0,0,0,24.14-43.12l.05-.22a1.92,1.92,0,0,1,.88-1.17,1.86,1.86,0,0,1,1.44-.21,1.9,1.9,0,0,1,1.39,2.32l-.06.22a99,99,0,0,1-25.11,44.85A1.91,1.91,0,0,1,169.94,179.07Zm7.31-126.85a1.93,1.93,0,0,1-1.75-.78,96,96,0,0,0-38.31-31.23,1.93,1.93,0,0,1-1-1.07,1.9,1.9,0,0,1,0-1.46,2,2,0,0,1,2.53-1A99.86,99.86,0,0,1,178.6,49.2a1.83,1.83,0,0,1,.35.92,1.91,1.91,0,0,1-1.7,2.1Zm18.91,64.2a1.91,1.91,0,0,1-.87-1.69A96,96,0,0,0,184.9,66.39a1.85,1.85,0,0,1-.12-1.46,1.93,1.93,0,0,1,.95-1.11,2,2,0,0,1,2.57.84,99.84,99.84,0,0,1,10.81,50.26,1.75,1.75,0,0,1-.31.93,1.89,1.89,0,0,1-2.64.57Zm-179-55.79a2,2,0,0,1-1.9,0A1.93,1.93,0,0,1,14.64,58,98.71,98.71,0,0,1,30.56,38.05a99.72,99.72,0,0,1,21.25-15.6,1.91,1.91,0,1,1,1.83,3.35A95.45,95.45,0,0,0,17.91,59.94h0A2,2,0,0,1,17.18,60.63ZM71.49,15.69A1.91,1.91,0,0,1,71.41,12a98.66,98.66,0,0,1,51.39-1.15,1.91,1.91,0,0,1-.91,3.71,95.45,95.45,0,0,0-49.4,1.11h0A2,2,0,0,1,71.49,15.69Z"/><path class="cls-3" d="M39.19,186.52a2,2,0,0,1-.91-.38,99.92,99.92,0,0,1-31-41,1.83,1.83,0,0,1-.13-1,1.93,1.93,0,0,1,1.18-1.51,2,2,0,0,1,2.49,1,95.92,95.92,0,0,0,29.79,39.45,1.93,1.93,0,0,1,.73,1.28,1.9,1.9,0,0,1-.4,1.41A1.92,1.92,0,0,1,39.19,186.52Z"/><path class="cls-3" d="M6.48,130.37h0A1.92,1.92,0,0,1,4.14,129l0-.11A99.08,99.08,0,0,1,.78,102.81,98.06,98.06,0,0,1,4.2,77.61a2,2,0,0,1,2.34-1.35,1.91,1.91,0,0,1,1.35,1.36,1.85,1.85,0,0,1,0,1,95.43,95.43,0,0,0-.07,49.31l0,.11A1.93,1.93,0,0,1,6.48,130.37Z"/><circle class="cls-4" cx="100.26" cy="107.95" r="84.05"/><g class="cls-5"><polygon class="cls-6" points="77.99 143.49 39.79 164.12 39.02 178.64 71.12 203.09 136.83 206.15 164.92 174.82 160.51 162.59 122.31 143.49 77.99 143.49"/><polygon class="cls-7" points="77.99 143.49 65.26 150.37 65.26 169.07 77.99 170.5 65.26 178.59 73.41 193.16 85.63 198.51 79.52 167.94 77.99 143.49"/><polygon class="cls-8" points="122.31 142.73 135.41 150.05 136.06 168.71 124.29 168.71 136.06 179.31 126.13 196.21 115.84 198.51 122.31 142.73"/><polyline class="cls-9" points="82.87 174.98 80.79 163.29 86.69 200.19 115.86 200.19 119.55 181.09 111.14 155.11"/><ellipse class="cls-10" cx="68.73" cy="103.92" rx="5.73" ry="10.7" transform="translate(-27.86 25.23) rotate(-17.35)"/><ellipse class="cls-10" cx="133.68" cy="103.15" rx="10.7" ry="5.73" transform="translate(-4.65 199.99) rotate(-72.65)"/><ellipse class="cls-10" cx="103.12" cy="127.6" rx="10.7" ry="5.73" transform="translate(-49.43 187.97) rotate(-72.65)"/><path class="cls-11" d="M66.82,73c0-17.51,15.23-30.94,34-30.94s34.77,13.81,34.77,31.33"/><rect class="cls-10" x="121.84" y="135.25" width="0.76" height="7.64"/><polygon class="cls-10" points="75.99 122.26 77.52 141.36 99.68 161.99 121.84 146.71 122.6 123.83 75.99 122.26"/><path class="cls-12" d="M81.34,129.9s.77,10.69,20.63,16c0,0,9.93,1.53,20.63-9.93v-9.93l-41.26-1.8Z"/><path class="cls-10" d="M128,62.68c-3.69,6-14,9-26,9-12.47,0-23-3.22-26.37-9.54-5.43,7.36-8.78,17.33-8.78,28.31A49.72,49.72,0,0,0,72.05,113c4.61,15.28,16.09,27.64,29.54,27.64s24.93-12.36,29.54-27.64a49.72,49.72,0,0,0,5.22-22.54A48,48,0,0,0,128,62.68Z"/><path class="cls-11" d="M73.65,54S59.18,70.3,66.82,99.33l3.82,1.53S65.3,68,76.76,61.89Z"/><path class="cls-11" d="M128.15,54s15.08,16.32,7.44,45.35l-3.82.77S136.5,68,125,61.89Z"/><polygon class="cls-13" points="91.57 169.26 97.39 173.45 92.8 200.96 108.35 200.96 103.5 173.45 109.61 169.63 101.97 160.46 91.57 169.26"/><polygon class="cls-14" points="77.52 141.36 101.21 160.46 122.6 142.12 119.55 181.09 101.21 161.22 82.87 177.27 77.52 141.36"/></g></svg>