<?xml version="1.0" encoding="utf-8"?>
<!-- Generator: Adobe Illustrator 25.2.0, SVG Export Plug-In . SVG Version: 6.00 Build 0)  -->
<svg version="1.1" id="Layer_1" xmlns="http://www.w3.org/2000/svg" xmlns:xlink="http://www.w3.org/1999/xlink" x="0px" y="0px"
	 viewBox="0 0 50 50" style="enable-background:new 0 0 50 50;" xml:space="preserve">
<style type="text/css">
	.st0{fill:#1D1D1B;}
</style>
<g>
	<path class="st0" d="M42.7,25.6c0-0.2,0-0.4-0.1-0.7c-0.6-1.5-2-2.8-4.1-2.3c-0.2,0-0.4,0-0.5-0.2C37.5,21.6,36.2,20,33,21
		c-0.2,0.1-0.4,0-0.5-0.1c-1.1-1.5-2.8-1.8-4.6-0.9c-0.2,0.1-0.4,0-0.5,0c-0.1,0-0.2-0.2-0.2-0.4L27,7.2c0-0.3-0.1-0.7-0.3-1
		c-0.4-0.6-1.5-1.9-3.6-1.8c-0.1,0-0.2,0-0.2,0c-0.5,0.1-3,0.7-3.5,3.3c0,0.1,0,0.2,0,0.3l-0.4,20.8c0,0.3-0.2,0.4-0.3,0.4
		c-0.1,0-0.3,0.1-0.5-0.1c-1.6-1.5-4.2-3.3-7-3c-0.1,0-1.3-0.1-2.4,0.7c-0.8,0.7-1.3,1.7-1.4,3c-0.1,0.4-0.2,1.8,3.3,3.6
		c0.3,0.3,1.5,1.2,2.3,2.6c0,0.1,0.1,0.2,0.1,0.2c0.5,0.7,5.4,6.9,8.7,8.5c0,0,0.1,0.1,0.1,0.1c0.8,0.9,4.1,4,11.4,4
		c0.2,0,0.3,0,0.5,0c0.1,0,8.5,0.3,9.2-8.6l0-0.1L42.7,25.6z M33.7,47.7c-7.4,0.1-10.4-2.9-11-3.5c-0.2-0.2-0.3-0.3-0.5-0.4
		c-2.4-1.2-6.3-5.7-8.2-8.2c-0.9-1.6-2.3-2.7-2.7-3c-0.1-0.1-0.2-0.1-0.3-0.2c-2.4-1.2-2.5-2.1-2.5-2.1c0.1-1,0.4-1.8,0.9-2.2
		c0.5-0.4,1.1-0.5,1.4-0.5c0.1,0,0.1,0,0.2,0c2.5-0.2,4.7,1.4,6.2,2.7c0.5,0.5,1.3,0.6,1.9,0.3c0.7-0.3,1.1-0.9,1.1-1.6l0.4-20.8
		l-0.7,0l0.7-0.1c0.4-1.8,2.1-2.3,2.5-2.3c1.4-0.1,2.1,0.7,2.4,1.2c0.1,0.1,0.1,0.2,0.1,0.3l0.1,12.3c0,0,0,0,0,0l0,9
		c0,0.4,0.3,0.7,0.7,0.7c0,0,0,0,0,0c0.4,0,0.7-0.3,0.7-0.7l0-7.3c0.4,0.1,0.9,0.1,1.3-0.1c1.3-0.6,2.3-0.4,3,0.5
		c0.1,0.2,0.3,0.3,0.4,0.4l0.2,6.3c0,0.4,0.3,0.6,0.7,0.6c0,0,0,0,0,0c0.4,0,0.7-0.3,0.6-0.7l-0.2-6c0.1,0,0.2,0,0.2,0
		c1.6-0.6,2.7-0.3,3.3,0.7c0.1,0.3,0.3,0.4,0.6,0.6v4.7c0,0.4,0.3,0.7,0.7,0.7c0.4,0,0.7-0.3,0.7-0.7v-4.4c0,0,0.1,0,0.1,0
		c1.6-0.4,2.3,0.8,2.6,1.5c0,0.1,0,0.1,0,0.2l0.2,14.7C40.9,47.9,34,47.7,33.7,47.7z"/>
	<path class="st0" d="M16.1,9.2c0.4,0,0.7-0.3,0.7-0.7c0-3.4,2.8-6.3,6.3-6.3s6.3,2.8,6.3,6.3c0,0.4,0.3,0.7,0.7,0.7
		s0.7-0.3,0.7-0.7C30.6,4.4,27.2,1,23,1s-7.6,3.4-7.6,7.6C15.5,8.9,15.8,9.2,16.1,9.2z"/>
</g>
</svg>
